<mxfile host="app.diagrams.net" modified="2024-09-23T07:20:21.737Z" agent="Mozilla/5.0 (Windows NT 10.0; Win64; x64) AppleWebKit/537.36 (KHTML, like Gecko) Chrome/128.0.0.0 Safari/537.36" etag="OTCaNyePl_Qn3hQ3eo5R" version="24.0.0" type="device">
  <diagram name="PÃ¡gina-1" id="PiagnaZy0IiPahVJubsr">
    <mxGraphModel dx="2440" dy="1292" grid="1" gridSize="10" guides="1" tooltips="1" connect="1" arrows="1" fold="1" page="1" pageScale="1" pageWidth="827" pageHeight="1169" math="0" shadow="0">
      <root>
        <mxCell id="0" />
        <mxCell id="1" parent="0" />
        <mxCell id="8_2-oLqJLHh6dvRKY53B-47" value="" style="shape=image;verticalLabelPosition=bottom;labelBackgroundColor=default;verticalAlign=top;aspect=fixed;imageAspect=0;image=data:image/png,iVBORw0KGgoAAAANSUhEUgAAAxgAAAJ0CAYAAACRPIXxAAAAAXNSR0IArs4c6QAAAARnQU1BAACxjwv8YQUAAAAJcEhZcwAADsMAAA7DAcdvqGQAADRfSURBVHhe7d0LvH3lXd/58AcS7hchEoQwUAoiw2AakRIUEYuIg9SIphPjMFJqImIZKYYUydBXTIeKWGRKiygJooxIGo0oRRkqQVqkhJCLSUQKMjAUBATkfg2X6fcHJMLDsw7/c9tn77Xf79fr8woh5HDO3ns9zzr//dtrvQkAAAAAAAAAAAAAAAAAAAZskL7x5b8EVkodWACwWOvSm1/+y9fYOG348l++xiav/Oer+RqvVf9c/fOtlfga9b3V99h6yyv/+WobvVKr9zXqPGIxX6P+2fbcY62/xpfTt6evvvTfgGVrD1BgdSx201+JE4dp+BpDm/6sfo36+63FnATV1+x9jfoe6ntpTfPXgDH5l+lfvPyXwHLZMGBl1Vvtf/3yXwIwI55LB6QvvPTfgGVp/4QOWLr6098/evkvAZghtX5fmHrv7AGL1HsrHFiaD6cfe/kvAZgxO6Sa7PiTl/4bsGRGpGBlvCN9NtWfgsE8eDH1PhRboyYvvPyXr/Fs+v9f/suvG/oaz79SazFfYyW+j4W+Rqv+ufrnW/V16+u3nnnlP19tMV+jfoblfh+r+TWGnsNp+Rr1z38m1dr9avXPvit97qX/BiyJXzBg+eot9RtSu1G9Wm2GtSm2hk5gFnPyMS1fo7fpl0mfONQ/W/+fVxvT1xh6LU36a8CsG/qDoT9P+6XesQoAE/HRVCdfbR9JAEyvunJUb/0+PQHAmqg/5ao/CW43p7oSiXEpgOlW6/TnU7uG17u0tb4DwETVvQG+ktqNqd5W3zcBMP1qvf7aGOCrq/W91nkAmJgzUrshVXU1KQBmx2mpt54blQJgYuqGTPVh2HYzqg8M9u7qDMD0MioFwJraJN2c2o2orri0dwJg9hiVAmDNnJXaDaj6UAJgdhmVAmDivjPVfSDazef65M74ALNtoVGp/RMArKjN0q2p3XieSnsmAGbf0KjUTalGZAFgxZyT2g2n+mcJgPEYGpWqqwcCwIr47tQbjbo2rUsAjEeNSt2Y2jW/rh5oVAqAZdsi3Z7ajeaJtHsCYHz2SXV1wHbtNyoFwLKdl9oNpvqnCYDxOjX11n+jUgAs2aHpxdRuLlenDRIA41U3TjUqBcCK2SrdmdqN5bG0awJg/IxKAbBiPp7aDaX6yQTA/DAqBcCyfX/qbSZXJqNRAPPFqBQAy7JNuju1G8kj6e0JgPkzNCr1F8moFAAL+s3UbiDVsQmA+TU0KnVmAoCuI1Nv87g8ATDfFhqVOiABwGtsl+5N7cbxUNopAcDeqTcqdXMyKgXAa1yc2g2jOjoBwNecknr7hVEpAL7uqNTbLC5NAPBqNSp1Q2r3DKNSALzkremvU7tRPJjelgCgZVQKgEG/k9oNonpvAoAhRqUAeJ36JaK3OdQvHQCwEKNSALxGjT89kNqNocalamwKAN6IUSkAvq4+wN1uCFV94BsA1tfQqNRZCYA5UZee7W0Gv50AYDGGRqVeSAcmAEaubppXN89rN4K6yV7dbA8AFqtGpZ5O7d5yS9o0ATBil6d2A6iOTACwVCen3v5iVApgxI5NvcX/NxMALMeG6frU7jFGpQBG6u3pkdQu/HenbRIALNdeyagUwBzYIF2Z2gW/+v4EACvFqBTAHPjJ1FvsP54AYCUZlQIYuV3TY6ld6O9MWyUAWGlGpQBGqkajrk7tAv9iOjQBwGoxKgUwQv809Rb38xIArKaFRqUOSgDMmN3TE6ld2G9PWyQAWG1Do1K3ps0SADNiXbo2tQt6/anRdycAmJQPpnY/qs5OAMyIf5Z6i/k5CQAmqUalrkvtnmRUCmBG7JmeSu1C7u1oANaKvQlgRi30gbrvTACwVk5K7f5UGZUCmGIfSr3F2yUBAVhrRqUAZsze6ZnULtw3Jzc1AmAaGJUCmBEbpc+mdsF+Ph2QAGBaGJUCmAEfTr3F+owEANNkoVGp70oArLF907OpXai/kjZJADBthkalbkubJwDWyMbpC6ldoJ9L+yUAmFZDo1Lu2QSwhj6SeovzRxMATLMalbo2tXtYjUodnACYsHemr6Z2Yf6z9OYEANNuj/Rkavcyo1IAE/aW9OXULsj1C8c7EgDMihNTu59VRqUAJuj01FuMT0sAMEvWJaNSAGto/1Qf4m4X4s+l+tA3AMwao1IAa6QuO3tTahfguoP3PgkAZpVRKYA1cGbqLb6nJACYZUalACbswPR8ahfez6SNEgDMuqFRqf83bZEAWCGbpltSu+A+nfZKADAWQ6NS5yYAVsjZqbfY/mwCgDEZGpV6MR2SAFim70o1f9outH+a6i6oADA2u6cnUrv33Z6MSgEsQ12ary7R1y6wNZ9ac6oAMFYnpHb/q4xKASxDLaK9xfV/TwAwZjUqdU1q90CjUgBL9D2pFtF2Ya3FthZdABg7o1IAK2TLdEdqF9TH024JAOaFUSmAFXB+6i2mP5UAYJ4YlQJYpu9LvdGoq9IGCQDmjVEpgCXaOt2V2gX00bRLAoB5NTQqdV4CYMCvp97i+RMJAObZQqNShyYAGkekdtGsrkhGowDg5VGpuuBJu1fWhVHqAikAvGLbdE9qF8yH084JAHjZ8andLyujUgCv8n+n3mL54wkA+Fv1rv7Vqd0zjUoBvOLdqV0kq8sSAPB6dU8oo1IAHdun+1K7QD6YdkwAQJ9RKYCOT6Te4vi+BAAMMyoF0HhPahfF6lMJAHhjRqUAXrFDeiC1C+L9qf43AGD9DI1K/WoCmBv1LkVvMax3NQCA9bfQqNRhCWD06vMV7SJY1ecxAIDFGxqVujNtlQBGq64M9TepXQDrSlJ1RSkAYGl+KrX7a3V+AhiturdFb/Gre2EAAEtXo1JXpXaPNSoFjNYxqV30qrqLNwCwfLumx1K71xqVAkZn5/Rwahe8v0rbJgBgZRyX2v22MioFjEa9ZXtF6i12RyQAYOUYlQJG7/2pXeSqX08AwMozKgWM1v+QHk3tAndX2joBAKvDqBQwOt6iBYC1s9A+/H0JYOYcn9pFrfq1BACsvqFRKZMEwMz5O6l3R9E70pYJAJiMoVGpCxLATFiXrkntQlZvyX5PAgAmp0al/mNq9+Xq8AQw9X4m9Raxf5cAgMnbJbnoCjCT9khPpnYBuy1tngCAtTF02XijUsDU2jBdl9qF64X0XQkAWDs1KnVlavfpyqgUMJU+mHqL1tkJAFh7RqWAmbFXejq1C9YtadMEAEwHo1LA1Nso3ZDaher59K4EAEwPo1LA1Pu51FukzkwAwPRZaFRqmwSwZvZJz6R2gbopbZIAgOk0NCp1YQJYExunz6V2YXou7Z8AgOm10KjUEQlg4k5LvUXp9AQATL+3p0dSu5ffnYxKARP1jvTV1C5IX0pvSQDAbDg2tft5ZVQKmJg3pz9L7UJUv3C8MwEAs6NGpa5I7b5eGZUCJuKjqbcIfSQBALNn52RUClgT+6X6EHe7AH0h1Ye+AYDZZFQKmLi67Oyfp3bheTbtmwCA2WVUCpi4M1Jv0Tk1AQCzz6gUMDEHpOdTu+B8Nm2UAIBxGBqVuigBrIhN082pXWjqDt57JwBgPBYalToyASzbWam3yJycAIDxGRqVuidtmwCW7DvTC6ldYP5L2jABAON0TGr3/8qoFLBkm6VbU7uwPJX2TADAuF2e2vOAyqgUsCTnpN6icmICAMZvp/Rwas8FjEoBi/bdqTca9Z/TugQAzAejUsCybZFuT+1C8kTaPQEA88WoFLAs56XeIvLTCQCYP0algCX73vRiaheQq1NdFxsAmE9GpYBF2yrdmdqF47G0awIA5tvQqNS7E8DrfDz1Fo0PJACAoVGpe9N2CeDrvj+1i0V1ZTIaBQB8zY+n3jnDxQngJduku1O7UDyS3p4AAF7tstSeN1RGpYCX/GbqLRLHJgCA1o7podSeOxiVAt70D1O7OFT1IS4AgCFHp945hFEpmGP1Jwz1Jw3twlB/IvFNCQBgIUalgNf47dRbFOpPJAAA3ohRKeDrjkrtYlBdmgAA1pdRKeBNb033p3YheCC9LQEALMbQqNQPJWAO/E7qLQLvTQAAizU0KnVf2j4BI1a/RLQHf/XJBACwVEOjUpckYKRq/OnB1B74f51qbAoAYDl+P7XnGVV99hMYIQc9ALCahv4w06gUjJArPAAAk/C+1DvnMCoFI7JT6n3w6p7kGtUAwEqry9635x2VqQkYgQ3S5al3kB+ZAABWmlEpGLFjU3twV7+RAABWi1EpGKFd0iOpPbDvTtskAIDVZFQKRqRGo65MvYP68AQAsNpcIh9G5CdTezBXH0sAAJMyNCrlJr8wQ3ZLj6X2QL4zbZUAACZpaFTqPQmYcjUadXVqD+AX06EJAGDSdkgPpPb85P5kVAqm3AmpPXirX0kAAGvlval3jmJUCqbY301PpPbAvT1tkQAA1tKnUnueUhmVgim0Ll2b2gP2hXRwAgBYa0alYIaclNqDtfo3CQBgWhiVghnwzemp1B6ot6bNEgDANDEqBVNsw3R9ag/QGo36jgQAMG2MSsEU+1BqD87qXycAgGk1NCr1uwlYI3unZ1J7YN6cNkkAANNsaFSqfvkAJmyjdGNqD8jn099PAADTbmhUqv5e/W/ABH04tQdjdUYCAJgV9cHu3jlNvbsBTMi+6dnUHohfSW9JAACzpC5R257XVEalYAI2Tl9M7QH41bRfAgCYNXXlqLqCVHt+Y1QKJuAjqT34qo8mAIBZZVQK1sA7U71T0R549Y7GmxMAwCwzKgUTVJ+t+HJqD7j6LMY7EgDArDMqBRN0emoPtuq0BAAwFkalYAL2T3V/i/ZAq/tg1Ie+AQDGZGhU6n0JWKa6I/dNqT3A6g7e+yQAgLEZGpV6ML0tActwZmoPruqUBAAwVj+SeudAlyZgiQ5MvdGoz6SNEgDAmF2S2vOgyqgULMFm6ZbUHlBPp70SAMDYbZ/uS+35kFEpWIKzU3swVSclAIB5cVTqnRMZlYJFODi9kNoD6U/ThgkAYJ4YlYJl2CLdltoD6Mm0RwIAmDdGpWAZzk3twVOdkAAA5pVRKViCf5BeTO2Bc01alwAA5tnQqNSPJaCxZbojtQfM42m3BAAw74ZGpR5KOybgVc5P7cFS/VQCAOBlQ6NSlyXgFd+XeqNRV6UNEgAAf+u3U3veVB2dYO5tne5K7QHyaNolAQDwWtule1N7/mRUCuLC1B4c1U8kAAD63p1651BGpZhrR6TegXFFMhoFALCwi1PvXMqoFHNp23RPag+Ih9NOCQCAhRmVglf5rdQeDNWPJwAA1o9RKQgHAgDAyjEqxVwbukHMg+ltCQCAxVloVMroOaP371P74q/elwAAWJqhCZHLE4zWe1Lvhf+pBADA8gyNSh2TYHR2SA+k9gV/f/rGBADA8nxDcpVO5sbvpfbFXtW7GgAArIwjU++cy6gUo1Kfr+i90C9JAACsrItS79zLqBSjUDd5+ZvUvsDrSgd1RSkAAFaWGxozav8htS/uqq50AADA6jAqxSjV23C9F3a9bQcAwOoyKsWo7Jzqbbj2Bf1Xqd62AwBgdRmVYjQ2SFek9sVcHZEAAJiMoVGpP0p1zgYz4f2p90K+IAEAMFlDo1LHJph6u6ZHU/sC/m9p6wQAwGQNjUo9kmqsHaZWvc12VWpfvC+mwxIAAGujxtTbc7SqxtqNSjG1jk+9F+6vJQAA1taFqXeuZlSKqfR30uOpfcHekbZMAACsrW3S3ak9XzMqxdRZl65J7Yu1RqMOSQAATAejUsyEn0m9F+q/TQAATBejUky1PdKTqX2B3pY2TwAATBejUkytDdN1qX1xvpAOSgAATCejUkylD6beC/OXEwAA021oVKpumgwT9y3p6dS+IG9JmyYAAKbb0KhU3TR5lwQTs1G6IbUvxufTuxIAALNhaFTqymRUion5udR7IZ6ZAACYLRek3rmdUSkmYp/0TGpfgDelTRIAALNl63RXas/vjEqx6jZOn0/ti++59O0JAIDZdHhqz/Eqo1Ksqn+Rei+80xMAALPNqBQT9Y701dS+4L6U3pwAAJhtRqWYmPoFon6RaF9s9QvH30sAAIyDUSkm4l+m3gvtIwkAgHExKsWq2i/Vh7jbF1h92Ls+9A0AwLgMjUo9lnZNsGR12dk/T+2Lqy5Tu28CAGCchkalrkpGpViyM1LvhXVqAgBg3D6eeueCxyVYtAPS86l9Qd2QNkoAAIzbVunO1J4PGpVi0TZNN6f2xfR02jsBADAfDksvpva80KgUi3JWal9E1ckJAID5cn7qnRsalWK9HJReSO0L6L+kDRMAAPPFqBRLtnm6NbUvnqfSngkAgPlkVIolOSe1L5rqxAQAwHwzKsWiHJJ6o1H/Oa1LAADMt4VGpXZL8HVbpNtT+2J5Iu2eAACgDI1KXZ2MSvF156X2RVL9dAIAgFcbGpU6PsGbvjf1fgv9dPJbKAAArRqVuiO154+PJ6NSc84lxwAAWIpDk1EpXueC1L4oqg8kAABYyNCYvVGpOfU/p94L4srkt04AAN7IlsmoFC/ZJt2d2hfDI2nnBAAA68OoFC+5KLUvguofJwAAWAyjUnPuH6beC+DyBAAAi2VUao5tl+5N7ZP/UPqmBAAASzE0KvUnaV1ipC5J7ZNe/a8JAACWY2hU6oTECP1w6j3hlyYAAFiuoVGpJ9LuiRF5a7o/tU/2A2mHBAAAK+F7Um9U6ppkVGpEfje1T3L1vyQAAFhJ56beuadRqZF4b+o9wZ9MAACw0rZIt6f2/NOo1Ai8LT2Y2if3vlRjUwAAsBoOSUalRugPUvukVkclAABYTUalRubo1HtCL04AALDajEqNyE7p4dQ+mfekutkeAABMglGpEdgg/WFqn8TqyAQAAJM0NCr1M4kZcGzqPYG/kQAAYNKGRqWeTHskptgu6dHUPnl3pW0SAACshaFRqWuTUakpVaNR/zG1T1p1eAIAgLV0Tuqdq56YmELHpd4T9rEEAABrbfN0W2rPV41KTaHd0mOpfbL+v7RVAgCAaXBweiG1561GpaZIPRFXp/ZJqhm3QxMAAEwTo1JTru6E2HuCfiUBAMC0MSo1xf5uqjshtk9OXQasLgcGAADTyKjUFKoHvp6A9kmpJ6qeMAAAmGZGpabMSan3hPybBAAA025oVOqptGdigr451QPfPhm3ps0SAADMgqFRqevShokJqAf6+tQ+CfXEfEcCAIBZUhM47bltVRM7TMA/T70n4F8nAACYNTWBU5M47fmtUakJ+B/TM6l98G9OmyQAAJhFByWjUhO2UboxtQ/68+nvJwAAmGVnp/ZctzIqtUr+j9R7wH8hAQDArDMqNUH7pmdT+2B/Jb0lAQDAGBiVmoCN0xdT+yB/NX1bAgCAMTEqtcp+PvUe4I8mAAAYm4VGpep+cCzDO1O9U9E+uPWORr2zAQAAYzQ0KlX3gzMqtUT12Yr6jEX7oNZnMb41AQDAmA2NSp2cWIJ/lXoP6GkJAADGrkalbknt+fDTaa/EIuyf6v4W7YNZ98Go+2EAAMA8ODAZlVqmuiP3X6T2Qaw7eO+TAABgnpyV2nPjyqjUevql1HsAT0kAADBvNk1GpZZoobeAjEYBADCvjEotwdCHWOp6v34zAwBg3hmVWqT/K/UeMHcsBAAAo1KLcnDqveVzbfKWDwAAvGxoVOozyUcKXrFFui21D9KTaY8EAAD8raFRKRdFesW5qfcAnZAAAIDXGhqVqts67J3m2qHpxdQ+OH+S1iUAAOD13pV6N6a+Ic3tqNRW6Y7UPiiPp90SAAAw7MzUnktXczsqdX7qPSDHJQAAYGGbpJtTez49l6NSh6feaNQfpw0SAADwxg5Icz8qtXW6K7UPwqNplwQAAKy/uR+VujD1HoB/kgAAgMWZ61GpH0jtD179UTIaBQAASzOXo1LfkO5J7Q/9cNopAQAASzc0KnVqGqWLU+8H/t8SAACwPAuNSu2TRuWHUvuDVpclAABgZQyNSt2YRjMqtX26L7U/5IPpbQkAAFg5Z6T23LsazajUJ1PvB/zRBAAArKwalbopteffoxiV+kep/cGqTyUAAGB17J9GNyq1Q3ogtT/U/ekbEwAAsHpGNyp1aer9QD+SAACA1TWqUakfS+0PUl2SAACAyRjFqNSO6aHU/hD3pu0SAAAwOTM/KvUfUu8H+MEEAABM1tCo1LNp3zTVjkntN15dlAAAgLUxNCr1+bRxmko7p0dS+03fnbZNAADA2vmF1J6rV6elqbNB+n9S7xs+IgEAAGvrLekrqT1fn8pRqfen9hutLkgAAMB02C89l9rz9qkaldo1PZbab/LOtHUCAACmx+mpPXevpmJUqkajrkrtN/diOiwBAADTZapHpY5P7TdW/WoCAACm01SOSu2eHk/tN3VH2jIBAADTa6pGpdala1L7zdRo1CEJAACYbguNSn1rmqgTU/uNVP82AQAAs2FoVOqLaWKjUnumJ1P7TdyWNk8AAMDsGBqV+khadRum61L7L38hHZQAAIDZUqNSX07tOf5X0zvSqjo5tf/i6pcTAAAwm96Z6heK9jx/VUelviU9ndp/6S1p0wQAAMyuj6b2XL9alVGpjdINqf2XPZ8OSAAAwGx7c/pSas/5V2VU6tTU/ouqX0wAAMA4TGRU6n9Kz6T2X3JT2iQBAADjseqjUuem9ovXtXLrmrkAAMC4DI1K1e8Ayx6V2iD9dGrfwfg/EwAAME5Do1J/mtalJeu9e/FielcCAADG6/zU/i5Q/WpasnoLpPeby1dS3ZADAAAYn/pA95+l9veA+t2g3t1YltNS+4Wrf5UAAIDx+fnU+x2gPgC+bPXby+dT+8XrHhj7JwAAYDyGPn9RH/yuD4CviH3Ts6n9l7hULQAAjMdCN9tb9mhU68Op/RdVZyQAAGD2Dd0Do0amVtxG6cbU/stqVOqABAAAzK6J3MW7tU/q3dX75mRUCgAAZlNdIfbLqT3Pr184ln1zvTfyc6n9F1dnJgAAYPacnnrn+B9Jq65GpW5I7b/8hXRgAgAAZsd+6bnUnt+v6mhUa+/UG5W6JW2aAACA6VejUXUT7fa8vq4gW1eSnah/ntpvpDorAQAA029oNKputj1xG6brU/vN1KjUQQkAAJheddPs3mhU3WR7YqNRrb3S06n9pm5NmyUAAGD61BVg66bZ7Xn8moxGtU5O7TdWnZ0AAIDpUzfL7p3Dr8loVKtGpa5L7TdXo1LflQAAgOlRo1F1s+z2/L1uql1XjJ0Ke6anUvtN3pY2TwAAwNobGo2qK8TWTbWnykmp/UarcxIAALD26ubYvXP2U9PUqVGpa1P7zdao1HcnAABg7RyQpn40qrVHejK13/TtaYsEAABMXo1G3Zza8/SpHI1qnZjab7w6NwEAAJM3NBp1Spp669J/Su03/2L6ngQAAEzOu1JvNOqGNLWjUa3d0xOp/SHuSFsmAABg9W2abknteXmNRu2dZsoJqf1BqvMSAACw+s5KvXPymRiNatWo1J+k9oepUalDEwAAsHoOTHVF1/Z8/DNpZkajWrulx1P7Q92ZtkoAAMDKGxqNejrtlWba8an9warzEwAAsPJ+OfXOwU9OM2+D9OnU/nA1KnVYAgAAVs5BqTcadX2qm2OPwq7psdT+kP8tbZ0AAIDl2yzdmtrz7lGMRrWOS+0PWl2QAACA5Ts79c65fzaNTo1KXZV6P/DhCQAAWLqh0ajr0mhGo1q7pEdT+0PflbZJAADA4m2e/jK159lPpT3TqL0/tT94dWECAAAW75zUO8c+KY1ejUpdmXoPwBEJAABYfwenuRuNar09PZLaB+HutG0CAADeWI1G3Zba8+on0x5prhyb2geiuigBAABvbGg06sQ0d2pU6orUe0COTAAAwLBDUm806tq0Ls2lndPDqX1Q7knfkAAAgNfbIt2e2vPouRyNah2T2gemujgBAACvd27qnUPP5WhUz+Wp9wC9OwEAAH+rRqNeTO258zVpbkejWjulh1L7IN2btksAAMDwaNQTaffEqxyd2gequiQBAABvetN5qXfOfEKi47LUe8COSgAAMM8OTUajFmnH9DepfdDuS9snAACYR1umO1J7nmw0aj28L7UPXPXvEwAAzKOh0ajjE+vh0tR7AN+TAABgngyNRl2d6ubVrIe3pQdT+yDen96aAABgHmyV7kztefHjabfEIrw3tQ9k9TsJAADmwfmpd05sNGqJPpV6D2j98gEAAGN2WOqNRn06GY1aoh3SA6l9UOvv1f8GAABjNDQa9VjaNbEM/yi1D2xV724AAMAYfSz1zoGPS6yAT6beA1yXtAUAgDE5PPXOfa9KRqNWSF05qq4g1T7IdaWpuuIUAACMwdbprtSe9xqNWgU/ktoHuqp7ZgAAwBhckHrnvB9IrIJLUu8BPzoBAMAsGxqNujIZjVol26f7UvugP5R2TAAAMIu2Sb3RqEfTLolVdFRqH/jqsgQAALPowtQ7x31/YgIuTr0n4McTAADMkiNS79zWaNQEbZfuTe2T8HDaKQEAwCyo0ai7U3te+0h6e2KC3p3aJ6K6PAEAwCwYGo06NrEGLkq9J+QfJwAAmGY/kHrnslcko1FrZNt0T2qflHpLaecEAADTyHnsFDsytU9M5Tc/AACm1dAkjtGoKfEbqfcE/ZMEAADTZOgPyOuzxP6AfEoMffrejUkAAJgmQ6NRroY6hVw/GACAafdbqXfOekxiCv166j1h7oAIAMBac5uFGbR1uiu1T9pjadcEAABrwY2iZ9jhqX3iqquSUSkAANbCxal3jnp0YgZ8PPWewOMSAABM0tBo1GWJGbFVujO1T+LjabcEAACTsH26L7XnpQ+lHRMz5LD0YmqfzKuTUSkAACbhktSej1ZGo2bU+an3hB6fAABgNR2Veueif5CYUVumO1L7pNao1O4JAABWw9Bo1IPpbYkZdmjqjUpdk9YlAABYaZ9I7fln9b7ECJyXek/wCQkAAFbSe1Lv3PPSxEhskW5P7ZP8RNojAQDASnhruj+1551Go0bokNQblbo2GZUCAGAlfDK155vVjyZG6NzUe8JPTAAAsBxDo1GfSozU5um21D7pT6Y9EwAALMU3pt5o1ANph8SIHZxeSO2Tf13aMAEAwGLVuxTt+WX13sQcOCf1XgAnJQAAWIz6JaJ3bmk0ao7UqNStqX0RPJW+OQEAwPqo8acag2rPK2tcqsammCMHpd6o1PXJqBQAAOtjaDSqPvDNHDo79V4QJycAAFhIXXq2dy5Zl6plTm2Wbknti+LptFcCAICeumle3TyvPY+s0ai62R5z7MDUG5W6IW2UAACgdWlqzx8ro1G85KzUe4GckgAA4NXel3rnjp9I8JJN039N7YvkmbR3AgCAMjQadV/aPsHXHZCeT+2L5bPJqBQAAOUPUnu+WB2V4HXOTL0XzKkJAID5dnTqnStekqBrk3Rzal80NSq1TwIAYD7tmB5K7Xmi0Sje0P6pNyr1ubRxAgBg/lyW2vPD6t0J3tAZqfcCOi0BADBfhkajLk6wXmpU6qbUvoieTfsmAADmw07p4dSeF96btkuw3r49PZfaF9Pnk1EpAID5cHlqzwcro1Esyemp94L6SAIAYNyOSb1zwd9KsCRvSV9J7Yvqq+kdCQCAcRoajbonbZtgyb4t1S8U7Yvri+nNCQCAcdkg/WFqz/+qIxMs20dT7wVWfx8AgHE5NvXO/S5KsCLqnYovpfZFVu9svDMBADAOO6dHUnveZzSKFVe/SPRGpeoXD6NSAACzr0ajrkjt+V71AwlWXF09qveCq6tNAQAw24ZGoy5MsCrq/hf14e72RVf3y9gvAQAwm96eeqNRd6dtEqyaujxtb1SqLmdbl7UFAGC21GjUlak9v6uOSLDqTku9F+AvJAAAZsv7U+/czmgUE1OjUp9P7Yvw+bR/AgBgNuySHk3ted1dyWgUE7Vveja1L8ab0iYJAIDpttBo1OEJJu7DqfeC/MUEAMB0+0DqnctdkGBNbJRuTO2LskalDkgAAEynXdNjqT2Pq9GorROsmX3SM6l9cd6cjEoBAEyfGo26KrXnb5XRKKbCz6XeC/SXEgAA0+W41Dt3+1iCqVCjUjek9kX6QjowAQAwHYZGo+5MWyWYGnun3qjULWnTBADA2qrRqE+n9nztxXRYgqnzodS+YKuzEgAAa+v41DtXOz/BVNowXZ/aF22NSh2UAABYG7ulx1N7nmY0iqm3V3o6tS/eW9NmCQCAyarRqKtTe35Wo1GHJph6H0ztC7g6OwEAMFlDo1HnJZgJNSp1XWpfxDUqdXACAGAydk9PpPa87I60ZYKZsWd6KrUv5tvS5gkAgNW1Ll2T2vMxo1HMrJNS+4KuzkkAAKyuE1LvXMxoFDOrfmu+NrUv6hqV+u4EAMDqGBqNuj1tkWBm7ZGeTF7cAACTsdBo1CEJZt6JqX2BV+cmAABWlnMvRq9+i/5PqX2R12/R35MAAFgZpkeYGy6RBgCwuhb6/KvRKEbJlQwAAFbP0GiUK3gyWvVb9Z+k9kXvWswAAMszNBrlHmSM3m7p8dS++O9MWyUAABZnw3Rdas+vajTq4ASjd3xqD4Dq/AQAwOK4uTFzb4P06dQeBDUqdVgCAGD97JmeSu151V8mo1HMlV3TY6k9GO5KWycAABa20GjUQQnmznGpPSCqCxIAAAv72dQ7lzo7wVyqUak/Tr0D4/AEAEDfXunp1J5D3Zo2SzC3dkmPpvbguDttkwAAeK0ajbo+tedPRqPgFe9P7QFSXZgAAHitk1Pv3OmXExA1KnVl6h0oRyQAAF42NBp1S9o0Aa/YOT2S2oOlRqW2TQAA826j9JnUni/VaNSBCWgcm9oDprooAQDMu1NS71zprAR01KjUFal34ByZAADm1d7pmdSeIxmNgjewU3o4tQfPPekbEgDAvKnRqBtSe370fHpXAt7AMak9gKqLEwDAvBkajTozAevp8tQ7kN6dAADmxT6pNxp1c9okAeupRqUeSu3BdG/aLgEAjF2NRt2Y2vOhGo06IAGLdHRqD6jqkgQAMHanpt65kNEoWIbLUu/AOioBAIzV0GjUTcloFCzDjulvUntw3Ze2TwAAY7PQaNT+CVim96X2AKs+mQAAxua01Dv3OSMBK+TS1DvQ3pMAAMZi3/Rsas95jEbBCntbejC1B9v96a0JAGDWbZw+n9rzneeS0ShYBe9N7QFX/W4CAJh1Q6NRpydglXwq9Q68+uUDAGBWDY1GfSW9JQGrZIf0QGoPvvp79b8BAMyaGo36YmrPb2o0ar8ErLL6YHd7AFa/lwAAZs1HUu/cxmgUTFBdorZ3INYlbQEAZsU70ldTe07z5WQ0CiaorhxVV5BqD8a60lRdcQoAYNoNjUbVLxzvTMCE/XBqD8jq9xMAwLT7+dQ7l/loAtbIJal3YB6dAACmVb1D0RuN+lJ6cwLWyPbpvtQenA+lHRMAwLSpXyDqF4n2/MVoFEyJH0rtAVpdlgAApk2NQPXOXWpkCpgSF6fegXpMAgCYFkOjUfVh7/rQNzAltkv3pvZgfTjtlAAA1lpddrYuP9uer9QvHHW5WmDK/GBqD9jq8gQAsNbqxnm9c5W60R4wpS5KvQP32AQAsFb2S8+l9hzFaBRMuW3TPak9eB9JOycAgEmr0aivpPb85Nn0rQmYckem9gCurkgbJACASRoajTotATPiwtQ7kH8iAQBMyv6pNxr1+WQ0CmbINunu1B7Mj6ZdEgDAatsk3ZTa85Eajdo3ATPmiNQe0NWVyagUALDazki9cxGjUTDDLki9A/sDCQBgtdRo1POpPQe5MW2UgBm1dbortQf3Y2nXBACw0oZGo55J+yRgxh2e2gO8uioZlQIAVtqZqXfucWoCRuJjqXegH5cAAFbKAcloFMyBrdKdqT3YH0+7JQCA5arRqJtTe75hNApG6rD0YmoP+quTUSkAYLmGRqNOScBI/VrqHfjHJwCApRoajbohGY2CEdsy3ZHag/+JtHsCAFisTdMtqT2/qNGovRMwcoem3qjUNWldAgBYjLNSe15RGY2COXJe6i0EJyQAgPV1YHohtecUn0lGo2CObJFuT+1i8GTaIwEAvJGh0ain014JmDOHpN6o1LXJqBQA8EaGRqNOTsCcOjf1FoYTEwDAkINSbzTq+rRhAubU5um21C4ONSq1ZwIAaG2Wbk3t+YPRKOAlB6fen0Bcl/wJBADQOju15w3VBxPAS85JvYXipAQA8DVDo1H+YBJ4jaG3Op9K35wAAGq0+i9T73zBaDXwOj6sBQAsxMQDsGhDM5UuNwcA881nNoElqVGpoRvmfEsCAObPQleddINe4A0N3fL/huSW/wAwf4ZGo9w3C1hvQ3fmPCUBAPPjkNT7g8dr07oEsF42Tf81tYvJM2nvBACM3xbp9tSeDxiNApbkgPR8aheVG5NRKQAYv3NTex5QGY0CluzM1FtYTk0AwHjVaNSLqT0HuCYZjQKWbJP0F6ldXGpUap8EAIzP0GjUE2n3BLAs+6feqNTn0sYJABiX81K771cnJIAVcUbqLTSnJQBgPA5NRqOAVVejUjeldrF5Nu2bAIDZt2W6I7X7vdEoYFXsl55L7aLzhWRUCgBm39Bo1PEJYFWcnnoLz0cSADC7hkajrk4bJIBV8Zb0ldQuPl9N70gAwOzZKt2Z2v398bRbAlhV35bqF4p2EfpienMCAGbL+and1yujUcDEfDT1FqL6+wDA7Dgs9UajPp2MRgETU+9UfCm1i1G9s/HOBABMv6HRqMfSrglgov5e6o1K1S8eRqUAYPp9LLX7eHVcAlgTdfWo3sJUV5sCAKbX4am3h1+VjEYBa6buf1Ef7m4Xp7pfRt03AwCYPlunu1K7fxuNAqZCXZ627ujdLlJ1Odu6rC0AMF0uSO2+XX0gAUyF01JvofqFBABMj6HRqCuT0ShgatSo1OdTu1g9n/ZPAMDa2yb1RqMeTbskgKmyb+qNSt2UNkkAwNq6MLX7dPX+BDCVTk29hesXEwCwdo5IvT3aaBQw1TZKN6Z28apRqQMSADB5NRp1d2r350fS2xPAVNsnPZPaRezmZFQKACZvaDTq2AQwE05JvYXslxIAMDk/kHp78hXJaBQwM2pU6obULmYvpAMTALD6tk33pHY/rtGonRPATNk79UalbkmbJgBgdV2U2n24MhoFzKwPpd7CdlYCAFbPkam3B/9hMhoFzKwN0/WpXdxqVOqgBACsvKHRqIfTTglgpu2Vnk7tIndr2iwBACvrt1K771bHJIBR+GDqLXRnJwBg5bw79fbcyxPAaNSo1HWpXexqVOrgBAAs33bp3tTut0ajgFHaMz2V2kXvtrR5AgCW5+LU7rPV0QlglE5KvYXvnAQALN3QaNRlCWC01qVrU7v41ajUIQkAWLzt032p3V8fSjsmgFHbIz2Z2kXw9rRFAgAW55LU7quV0ShgbpyYegvhuQkAWH9Hpd6e+gcJYG7UqNQ1qV0MX0z/IAEAb2xoNOrB9LYEMFd2T0+kdlG8I22ZAICFfSK1+2j1vgQwl05IvYXxvAQADHtP6u2hlyaAuVWjUlendnGsUanvTQDA67013Z/a/dNoFEDslh5P7SJ5Z9oqAQCv9cnU7pvVjyYA4vjUWyjPTwDA3xoajfpUAuAVG6SrUrtY1qjUYQkAeNObvjH1RqMeSDskAF5l1/RYahfNu9LWCQDmXb1L0e6T1XsTAB3Hpd7CeUECgHlWv0T09kijUQALqFGpP069BfTwBADzqMafagyq3RtrXKrGpgBYwC7p0dQuonenbRIAzJuh0aj6wDcA6+H9qbeQXpgAYJ7UpWd7e2JdqhaA9VSjUlem3oJ6RAKAeVA3zaub57V7YY1G1c32AFiEndMjqV1U/yptmwBg7C5N7T5YGY0CWKJjU29hvSgBwJi9L/X2wE8kAJaoRqWuSL0F9sgEAGM0NBp1X9o+AbAMO6WHU7vI3pO2SwAwNn+Q2n2vOioBsAKOSb2F9uIEAGNydOrteZckAFbQ5am34L47AcAY7JgeSu1eZzQKYBV8U+otuvcmo1IAjMFlqd3nKn+YBrBKvG0MwFgN7XHGgQFW2dCf7vjgGwCzqi5o4l16gDVS86ku3QfAmPicIcAaG7r50CcTAMwSV0oEmBKXpt6C/J4EALNgoXs9bZsAmKChu5zen96aAGDaDY1GHZkAWAPvTb2F+XcTAEyzY1NvD7soAbCGPpV6C3T98gEA02jn9Ehq9y6jUQBTYIf0QGoX6fp79b8BwDTZIF2R2n2rMhoFMCXqg929hfr3EgBMk6HRqAsTAFOkLlHbW7DrkrYAMA3ennqjUXenbRIAU6SuHFVXkGoX7brSVF1xCgDWUo1GXZnafao6IgEwhX449Rbu308AsJben3p7lNEogCl3Seot4EcnAFgLu6RHU7s33ZWMRgFMue3TfaldxB9KOyYAmKSFRqMOTwDMgB9KvYX8sgQAk/SB1NuTLkgAzJCLU29BPyYBwCTsmh5L7V5Uo1FbJwBmyHbp3tQu6g+nnRIArKYajboqtftQZTQKYEb9YOot7JcnAFhNx6XeHvSxBMAMuyj1Fvi6kyoArIah0ag701YJgBm2bbontYt83Ul15wQAK6lGoz6d2n3nxXRYAmAEjkztQl9dkWojAICVcnzq7TnnJwBGpO6U2lvwfyIBwErYLT2e2r3GaBTACNWdUu9O7aJfd1atO6wCwHLUO+JXp3afqdGoQxMAI3REahf+qu6walQKgOUYGo06LwEwYnXn1N4GUHdaBYCl2D31RqPuSFsmAEas7pxad1BtN4G6nGBdVhAAFmNduia1+4rRKIA5UndQbTeCqu64alQKgMU4IfX2FKNRAHOm7qTa2xB+KgHA+qjRqCdSu5fcnrZIAMyRulxgXTaw3RRqhrYuMwgAC1loNOqQBMAcqjuq1kbQbg51mUGjUgAs5GdSu39U5yYA5tivpd4G8dMJAHr2SE+mdu8wGgXAS5cPrMsItptEzdTWbC0AvFqNRl2b2n3jhWQ0CoCX1GUEe6NSNVtbGwkAfM2Jqd0vqnMSAHzdr6TehlGXHwSAMjQadVvaPAHA19XMbM3OtptGbSS1oQAw3zZM16V2n6jRqIMTALxOzc72RqVq1taoFMB8Oym1+0NlNAqABf271NtAauYWgPm0Z3oqtXvDXyajUQAsqDaKmqVtN5EalaoNBoD5stBo1EEJAN5QzdLWxtFuJrXB1EYDwPz42dTuB9XZCQDWW83U9jaUmsEFYD7slZ5O7V5wa9osAcB6q42jNpB2U6kZ3NpwABi3esf6+tTuA0ajAFiy2kB6o1K14RiVAhi3k1O7/le/nABgyWrGtrfB1MYDwDgNjUbdkjZNALBkNSpVG0q7ydTG8y0JgHHZKH0mtet+vaN9YAKAZasNpTcqdUOqjQiA8Tgltet9dVYCgBVTG0tvw6mNCIBx2Ds9k9q13mgUACuuNpabU7vp1EZUGxIAs63eka53ptt1/vn0rgQAK+6AVBtNu/ncmIxKAcy2odGoMxMArJraaHob0KkJgNm0T+qNRtU715skAFg1tdH8RWo3odqYaoMCYLbUO9D1TnS7rtc71vXONQCsuv1Tb1Tq82njBMDsqHeg2/W8MhoFwESdkXob0mkJgNkwNBp1UzIaBcBE1cZTG1C7KT2b9k0ATLeFRqPqnWoAmLj90nOp3Zy+kIxKAUy3ese5Xb+reocaWKINXvlPYOlOT64gBTAOdRGPb0s1NgUsgV8wYPnekj6XXEEKYLbVaNR3pM++9N+AJVn3yn8CS1efufjxVKNSAMyuumqUXy5gmTZ85T+B5bk31WcuDn7pvwEwS/40PZZ+LL1QfwNYOiNSsHLenOpqJK4gBTBb6g9cd0j1h0UAMFV2TN4ZBAAAAAAAAAAAAAAAAAAAAAAAAAAAAABg/rzpTf8dhIzVpJdI1ZwAAAAASUVORK5CYII=;" vertex="1" parent="1">
          <mxGeometry x="370" y="304.63" width="919.04" height="728.73" as="geometry" />
        </mxCell>
        <mxCell id="8_2-oLqJLHh6dvRKY53B-37" value="" style="shape=image;verticalLabelPosition=bottom;labelBackgroundColor=default;verticalAlign=top;aspect=fixed;imageAspect=0;image=data:image/png,iVBORw0KGgoAAAANSUhEUgAAAxgAAAJ0CAYAAACRPIXxAAAAAXNSR0IArs4c6QAAAARnQU1BAACxjwv8YQUAAAAJcEhZcwAADsMAAA7DAcdvqGQAAByCSURBVHhe7d27jlxVFoDhxhKYjAi/AMTIEDriAbgkJkAyAZEFZEgI/ASOkEgcIktARoDMQzjkARBPQEaGQLLHZWrArtWrqs59X75PWqq2NMNAd9XZ++zz03MBAAAAAAAAAADQrhf2r8BE9+/ff7z/sjt//PHHxSuvvLL/EyX4+++/L1588cX9nyjBo0ePnr5euXLl6StlOPysfPzxx/ZGAGzv008/3d1cGGOMqXzu3bu3ewUmcJcOE/3888+P33vvvf2fAKjZyy+/fPHnn3/aH8EEntPCRJ9//vn+KwBq9+Tm4uL999/3FAMmcIMBE3z22WePf/vtt/2fAGjBgwcPLqRSMJ5HgDDSjz/++PiDDz7Y/wmAlkilYDxPMGCkO3fu7L8CoDVSKRjPDQaMII0CaJ9UCsbx6A8G8lujAPohlYLhPMGAgfzWKIB+SKVgOHfkMMAujbp3797+T6fduHFj/xUApXn48OH+q9N21/4na4B9EwDz2aVRT17Ontdff333CkC5wrU7m5dffnn3CgDz2d8wnD0PHjzYvQJQqLt374Zr97GRSgEwm10a9eTl7Nn/5wEo3Ntvvx2u4cfGb5UCYDJpFEDzwrU8G6kUAJNJowDaJpUCYDXSKIA+SKUAWJw0CqA74dqejVQKgMGkUQB9kUoBsBhpFECfpFIAzE4aBdC9cK3PRioFwEnSKIC+SaUAmI00CoAdqRQAk0mjADgQrv3ZSKUACKRRADxLKgXAaNIoAC4jlQJgMGkUACeEtSAbqRQA0igAjpJKAXA2aRQA55BKAXCSNAqAgcLakI1UCqBD0igAhpBKAZCSRgEwhlQKgEAaBcBEYa3IRioF0AFpFABTSKUA+Jc0CoA5SKUAkEYBMLewdmQjlQJokDQKgDlJpQA6Jo0CYAlSKYAOSaMAWFhYS7KRSgE0QBoFwJKkUgAdkUYBsAapFEAHpFEArCysLdlIpQAqJI0CYE1SKYCGSaMA2IJUCqBB0igANhbWmmykUgAVkEYBsCWpFEBDpFEAlEAqBdAAaRQAhQlrTzZSKYACSaMAKIlUCqBi0igASiSVAqiQNAqAwoW1KBupFEABpFEAlEwqBVARaRQANZBKAVRAGgVAZcLalI1UCmAD0igAaiKVAiiYNAqAGkmlAAokjQKgcmGtykYqBbACaRQANZNKARTk9u3b4cJ7bKRRAJRIKgVQAGkUAI0Ja1c2UimABUijAGiJVApgQ35rFAAtkkoBbEAaBUDjwlqWjVQKYAbSKABaJpUCWJE0CoAeSKUAViCNAqAzYW3LRioFMII0CoCeSKUAFiSNAqBHUimABUijAOhcWOuykUoBnEEaBUDPpFIAM5JGAYBUCmAW0igAeE5Y+7KRSgFcQhoFAP+RSgFMII0CgEgqBTCCNAoAjgprYTZSKYAnpFEAkJNKAQwgjQKA06RSAGeQRgHAIGFtzEYqBXRJGgUA55NKARwhjQKA4aRSAJeQRgHAJGGtzEYqBXRBGgUA40mlAJ4hjQKA6aRSAE9IowBgVmHtzEYqBTRJGgUA85FKAV2TRgHA/KRSQJekUQCwqLCWZiOVApogjQKA5UilgK5IowBgeVIpoAvSKABYVVhbs5FKAVWSRgHAeqRSQNOkUQCwPqkU0CRpFABsKqy12UilgCpIowBgO1IpoCnSKADYnlQKaII0CgCKEtbebKRSQJGkUQBQDqkUUDVpFACURyoFVEkaBQBFC2txNlIpoAjSKAAol1QKqIo0CgDKJ5UCqiCNAoCqhLU5G6kUsAlpFADUQyoFFE0aBQD1kUoBRZJGAUDVwlqdjVQKWIU0CgDqJZUCiiKNAoD6SaWAInz33XfhgnNspFEAULSwdmdz9erV3SvAvKRRANAOqRSwKWkUALRHKgVswm+NAoCmhbU8G79VCpiFNAoA2iWVAlYljQKA9kmlgFVIowCgK2Ftz0YqBYwijQKAfkilgEVJowCgP1IpYBHSKADoWljrs5FKAWeRRgFAv6RSwKykUQCAVAqYhTQKAHhGWPuzkUoBl5JGAQD/J5UCJpFGAQCHpFLAKNIoAOCIsBfIRioFPCWNAgAyUilgEGkUAHCKVAo4izQKABgg7A2ykUpBp6RRAMC5pFLAUdIoAGAoqRRwKWkUADBB2CtkI5WCTkijAICxpFLAc6RRAMBUUingKWkUADCjsHfIRioFjZJGAQBzkUpB56RRAMDcpFLQKWkUALCgsJfIRioFjZBGAQBLkUpBZ6RRAMDSpFLQCWkUALCisLfIRioFlZJGAQBrkUpB46RRAMDapFLQKGkUALChsNfIRioFlZBGAQBbkUpBY6RRAMDWpFLQCGkUAFCQsPfIRioFhZJGAQClkEpB5aRRAEBppFJQKWkUAFCwsBfJRioFhZBGAQClkkpBZaRRAEDphqZS+5sSYG3SKACgImFvks3Vq1d3r8DapFEAQC2kUlA4aRQAUBu/VQoKJY0CACoW9irZ+K1SsBJpFABQK6kUFEYaBQDUTioFhZBGAQANCXuXbKRSsBBpFADQCqkUbEwaBQC0RioFG5FGAQANC3uZbKRSMBNpFADQKqkUrEwaBQC0TioFK5FGAQAdCXubbKRSMJI0CgDohVQKFiaNAgB6I5WChUijAICOhb1ONlIpOJM0CgDolVQKZiaNAgB6J5WCmUijAAD+FfY+2UilICGNAgD4h1QKJpJGAQA8TyoFI0mjAABSYS+UjVQK9qRRAACXk0rBQNIoAIDjpFJwJmkUAMDZwt4oG6kU3ZJGAQCcRyoFJ0ijAACGkUpBQhoFADBa2CtlI5WiG9IoAIBxpFJwQBoFADCNVAr2pFEAALMJe6dspFI0SxoFADAPqRTdk0YBAMxLKkW3pFEAAIsJe6lspFI0QxoFALAMqRTdkUYBACxLKkU3pFEAAKsJe6tspFJUSxoFALAOqRTNk0YBAKxLKkWzpFEAAJsJe61spFJUQxoFALANqRTNkUYBAGxLKkUzpFEAAMUIe69spFIUSxoFAFAGqRTVk0YBAJRFKkW1pFEAAMUKe7FspFIUQxoFAFAmqRTVkUYBAJRNKkU1pFEAANUIe7NspFJsRhoFAFAHqRTFG5pGffrpp7tXAAA2IpWiWNIoAIBqhb1aNlIpViONAgCok1SK4kijAADqJpWiGNIoAIBmhL1bNlIpFiONAgBog1SKzUmjAADaIpViM9IoAIBmhb1cNlIpZiONAgBok1SK1d2+fTu8sY6NNAoAoC5DU6lvvvlm9wrD/fTTT+ENdWykUQAA1Qp7u2ykUowmjQIA6INUisV98skn4Y10bKRRAAB181ulWIzfGgUA0K2w18tGKsXZpFEAAH2SSjE7/4d6AAB9k0oxG2kUAAB7Ye+XjVSKlDQKAIAdqRSTSaMAAHiWVIrRpFEAACTCXjAbqRT/kkYBAHAZqRSDSaMAADhGKsXZpFEAAJwp7A2zkUp1TBoFAMA5pFKcJI0CAGAIqRQpaRQAACOFvWI2UqmOSKMAABhDKkUgjQIAYAqpFP+SRgEAMJOwd8xGKtUwaRQAAHOQSiGNAgBgVlKpjkmjAABYSNhLZiOVaog0CgCAJUilOiSNAgBgSVKpjkijAABYSdhbZiOVqpg0CgCANUilOiCNAgBgTVKphkmjAADYSNhrZiOVqog0CgCALUilGiSNAgBgS1KphkijAAAoRNh7ZiOVKpg0CgCAEkilGiCNAgCgJFKpikmjAAAoVNiLZiOVKog0CgCAEkmlKiSNAgCgZFKpikijAACoRNibZiOV2pA0CgCAGkilKiCNAgCgJlKpgkmjAACoVNirZiOVWpE0CgCAGkmlCiSNAgCgZlKpgkijAABoRNi7ZiOVWpA0CgCAFkilCiCNAgCgJVKpDUmjAABoVNjLZiOVmpE0CgCAFkmlNiCNAgCgZVKpFUmjAADoRNjbZiOVmkAaBQBAD6RSK5BGAQDQE6nUgqRRAAB0Kux1s5FKDSCNAgCgR1KpBUijAADomVRqRtIoAAB4Kux9s5FKHSGNAgAAqdQspFEAAPAfqdQE0igAALhU2AtnI5V6hjQKAAAiqdQI0igAAMhJpQaQRgEAwFnC3jibrlMpaRQAAJwmlTqDNAoAAM4nlTpCGgUAAKOEvXI2XaVS0igAABhOKnUJaRQAAIwnlXqGNAoAAGYR9s7ZNJ1KSaMAAGA6qdQT0igAAJhP16mUNAoAABYR9tLZNJVKSaMAAGB+XaZS0igAAFhOV6mUNAoAAFYR9tbZVJ1KSaMAAGB5XaRS0igAAFhP06mUNAoAADYR9trZVJVKSaMAAGB9TaZS0igAANhOU6mUNAoAAIoQ9t7ZFJ1KSaMAAGB7TaRS0igAAChH1amUNAoAAIoU9uLZFJVKSaMAAKA8VaZS0igAAChXVamUNAoAAKoQ9ubZbJpKSaMAAKB8VaRS0igAAKhH0amUNAoAAKoU9urZrJpKSaMAAKA+RaZS0igAAKhXUamUNAoAAJoQ9u7ZLJpKSaMAAKB+Q1Opd955Z/c6L2kUAAC0Y9NUShoFAABNCnv5bGZNpaRRAADQnk1+q5Q0CgAA2rVqKiWNAgCALoS9fTaTUilpFAAAtG+VVEoaBQAA/Vg0lZJGAQBAl8JeP5tBqdRrr70W/gLHRhoFAAD1G5pKvfvuu7vXs4T/cjavvvrq7hUAAGhD2PNnc+3atd3raXfu3An/5WNz69at3SsAAFCxt956K+z1j83333+/ez3Pon9xAACgKF999VXY4x+bsQ8Zwl8oG6kUAABULezxszk7jToklQIAgPatWi9JpQAAoF1rpVGHwl84G6kUAABUJezpsxmdRh2SSgEAQHs2rZWkUgAA0I6t0qhD4X8oG6kUAAAULezhs1lsby+VAgCA+g2tk7799tvd6zKkUgAAUK9S0qhD4X84G6kUAAAUJezZs5ntt0adIpUCAID6FF0jSaUAAKAepaZRh8LfSDZSKQAA2FTYo2ezWhp1SCoFAADlq6o+kkoBAEC5akmjDoW/sWykUgAAsKqwJ89mszTqkFQKAADKU3VtJJUCAIBy1JpGHQp/o9lIpQAAYFFhD55NMWnUIakUAABsr6m6SCoFAADbaSWNOhT+xrORSgEAwKzCnjubYtOoQ1IpAABYX9M1kVQKAADW02oadSj8g2QjlQIAgEnCHjubatKoQ1IpAABYXlf1kFQKAACW00sadSj8g2UjlQIAgEHCnjqbatOoQ1IpAACYX9e1kFQKAADm02sadSj8g2YjlQIAgKPCHjqbZtKoQ1IpAACYTh30DN8MAAAYTxp1ufAPno1UCgAAnhP2zNk0m0YdkkoBAMBwaqAjfHMAAOB80qjzhG9ENlIpAAA6F/bI2XSTRh2SSgEAwGnqnwF8swAAICeNGid8Y7KRSgEA0JmwJ86m2zTqkFQKAAAitc8EvnkAAPAfh/DzCN+obKRSAAA0LuyBs5FGJdylAQCAumdWvpkAAPTMofsywjcuG6kUAACNCXvebKRRZ3LXBgBAj9Q8C/LNBQCgJw7Z1xG+kdlIpQAAqFzY42YjjRrJXRwAAD1Q76zINxsAgJY5VN9G+MZmI5UCAKAyYU+bjTRqJu7qAABokVpnQ775AAC0xCF6GcI3OhupFAAAhQt72GykUQtxlwcAQAvUOQXxwwAAoGYOzcsUvvHZSKUAAChM2LNmI41aibs+AABqpMYpmB8OAAA1cUheh/CDyEYqBQDAxsIeNRtp1EbcBQIAUAP1TUX8sAAAKJlD8TqFH0w2UikAAFYW9qTZSKMK4a4QAIASqW0q5ocHAEBJHIK3IfygspFKAQCwsLAHzUYaVSh3iQAAlEBd0xA/TAAAtuTQu03hB5eNVAoAgJmFPWc20qhKuGsEAGALapqG+eECALAmh9x9CD/IbKRSAABMFPaY2UijKuUuEgCANahnOuKHDQDAkhxq9yn8YLORSgEAMFDYU2YjjWqEu0oAAJaglumYHz4AAHNyiM1O+EFnI5UCAOCEsIfMRhrVKHeZAADMQR3Dv7wZAACYwqE1lwk/+GykUgAAHAh7xmykUZ1w1wkAwBhqGFLeHAAADOGQmnOEN0I2UikAgO6FPWI20qhOuQsFAOAc6hfO5s0CAMAxDqUZI7wxspFKAQB0J+wJs5FG8ZS7UgAALqN2YTRvHgAAnuUQmjmEN0o2UikAgOaFPWA20igu5S4VAIAddQuz8WYCAOibQ2eWEN442UilAACaE/Z82UijOIu7VgCAPqlZWMybb74Z3kDHxpsLAKBuDplZQ3gjZSOVAgCoXtjjZSONYpQvv/wyvJmOjbtYAIA6SaNYzfXr18Mb6th4swEA1GVoGvXhhx/uXmGS8MbKRioFAFCdsKfLRhrFLPwLPwAAbZJGsRlvPgCAtjhEpgThjZaNVAoAoHhhD5eNNIpFuMsFAGiDOoVieDMCANTNoTElCm+8bKRSAADFCXu2bKRRrMJdLwBAndQoFMubEwCgLg6JqUF4I2YjlQIA2FzYo2UjjWIT7oIBAOqgPqEa3qwAAGVzKEyNwhszG6kUAMDqwp4sG2kURXBXDABQJrUJ1fLmBQAoi0NgWhDeqNlIpQAAFhf2YNlIoyiSu2QAgDKoS2iGNzMAwLYc+tKi8MbNRioFADC7sOfKRhpFFdw1AwBsQ01Cs7y5AQDW5ZCXHoQ3cjZSKQCAycIeKxtpFFVyFw0AsA71CN3wZgcAWJZDXXoU3tjZSKUAAAYLe6pspFE0wV01AMAy1CJ0y5sfAGBeDnHhkjd6NlIpAICTwh4qG2kUTXKXDQAwD3UI7PkwAABM49AWovDGz0YqBQAQhD1TNtIouuCuGwBgHDUIJHw4AACGcUgLp4UPQjZSKQCAy/dJl400ii65CwcAOI/6A87kwwIAcJxDWRgufDCykUoBAB0Ke6JspFHwhLtyAIDLqT1gJB8eAIDnOYSF6cIHJRupFADQgbAHykYaBZdwlw4A8A91B8zEhwkA6J1DV5hf+OBkI5UCABoU9jzZSKPgDO7aAYBeqTlgIT5cAEBvHLLC8sIHKRupFADQgLDHyUYaBSO4iwcAeqHegJX4sAEArXOoCusLH6xspFIAQIXCniYbaRTMwF09ANAqtQZsxIcPAGiNQ1TYXvigZSOVAgAqEPYw2UijYAHu8gGAVqgzoBA+jABA7RyaQnnCBy8bqRQAUKCwZ8lGGgUrcNcPANRKjQGF8uEEAGrjkBTKFz6I2UilAIAChD1KNtIo2IBTAACgFuoLqIQPKwBQuqGHojdv3ty9AhsKH8xspFIAwAbCniQbaRQUQCoFAJRKbQGV8uEFAErjEBTqFz6o2UilAIAVhD1INtIoKJBTAgCgFOoKaIQPMwCwNYee0J7wwc1GKgUALCDsObKRRkEFnBoAAFtRU0CjfLgBgLU55IT2hQ9yNlIpAGAGYY+RjTQKKuQUAQBYi3oCOuHDDgAszaEm9Cd8sLORSgEAI4Q9RTbSKGiAUwUAYClqCeiUDz8AMDeHmED4oGcjlQIAzhD2ENlIo6BBThkAgLmoI4CnXAwAgKkcWgKHwgc/G6kUAHCJsGfIRhoFHXDqAACMpYYALuXiAAAM5ZASOCVcCLLxeBMAeCLsEbKxd4AOOYUAAM6lfgDO4mIBAJziUBIYKlwYsvG4EwC6FPYE2dgrAE4lAICU2gEYxcUDADjkEBKYKlwosvH4EwC6EPYA2dgbAIFTCgDg/9QNwCxcTAAAh47A3MKFIxuPQwGgSWHNz8ZeADjJqQUA9EvNACzCxQUA+uOQEVhauJBk4/EoADQhrPHZWPuBwZxiAEA/1AvAKlxsAKB9DhWBtYULSzYelwJAlcKano21HpjMqQYAtEutAGzCxQcA2uMQEdhauNBk4/EpAFQhrOHZWNuB2TnlAIB2qBOAIrzxxhvhgnNsXIwAoDxDDw1v3ry5ewVYTLjwZONxKgAUKazZ2VjLgcVJpQCgXtIooEguTgBQH4eEQOnChSgbj1cBoAhhjc7G2g2szikIANRDfQBUwcUKAMrnUBCoTbgwZeNxKwBsIqzJ2Virgc05FQGAcqkNgCq5eAFAeRwCArULF6psPH4FgFWENTgbazNQHKckAFAOdQHQBBczANieQz+gNeHClY3HsQCwiLDmZmMtBorn1AQAtqMmAJrk4gYA63PIB7QuXMiy8XgWAGYR1thsrL1AdZyiAMB61ANAF1zsAGB5DvWA3oQLWzYe1wLAKGFNzcZaC1TPqQoALEctAHTJxQ8A5ucQD+hduNBl4/EtAJwlrKHZWFuB5jhlAYD5qAMAnnAxBIDpHNoBPC9c+LLxOBcALhXWzGyspUDznLoAwHhqAIBLuDgCwHAO6QCOCxfCbDzeBYCnwhqZjbUT6I5TGAA4n6f/AGdwsQSA0xzKAQwTLozZeNwLQKfCmpiNtRLonlMZAMh52g8wgosnAEQO4QCmCRfKbDz+BaATYQ3MxtoIcMApDQD8x9N9gBm4mAKAQzeAuYULZzYeBwPQqLDmZWMtBDjBqQ0APfM0H2ABLq4A9MghG8CywoU0G4+HAWhEWOOysfYBDOQUB4CeeHoPsAIXWwB64FANYF3hwpqNx8UAVCqsadlY6wAmcqoDQMs8rQfYgIsvAC1yiAawrXChzcbjYwAqEdawbKxtADNzygNASzydByjA9evXwwX32LgYA1Aih2YAZQkX3mw8TgagUGHNysZaBrAwpz4A1EwaBVAgF2cAauSQDKBs4UKcjcfLABQirFHZWLsAVuYUCICaePoOUAEXawBq4FAMoC7hwpyNx80AbCSsSdlYqwA25lQIgJJ52g5QIRdvAErkEAygbuFCnY3HzwCsJKxB2VibAArjlAiAkni6DtAAF3MASuDQC6At4cKdjcfRACwkrDnZWIsACufUCIAteZoO0CAXdwC24JALoG3hQp6Nx9MAzCSsMdlYewAq4xQJgDV5eg7QARd7ANbgUAugL+HCno3H1QCMFNaUbKw1AJVzqgTAkjwtB+iQiz8AS3CIBdC3cKHPxuNrAM4U1pBsrC0AjXHKBMCcPB0HwGIAwCwcWgHwrHDhz8bjbAASYc3IxloC0DinTgBM4Wk4AIHFAYAxHFIBcExYCLLxeBuAvbBGZGPtAOiMUygAhvD0G4CTLBYAnMOhFABDhIUhG4+7AboV1oRsrBUAnXMqBcAxnnYDMJjFA4DLOIQCYIqwUGTj8TdAN8IakI21AYDnOKUC4FmebgMwmcUEgB2HTgDMKSwc2XgcDtCscM3PxloAwFFOrQD65mk2ALOzuAD0ySETAEsKC0k2Ho8DNCNc47Nx7QdgEKdYAH3x9BqAxVlsAPrgUAmANYWFJRuPywGqFa7p2bjWAzCJUy2AtnlaDcDqLD4AbXKIBMCWwkKTjcfnANUI1/BsXNsBmJVTLoC2eDoNy3hh/wqcYbcY/fLLL/s/nXb//v39VwCU5Ndff724e/fu/k+n3bp16+KHH36wb4Iz+KDAcE6wADpy7dq1i99//92eCc50Zf8KnOnOnTv7rwDowddff73/CgAWMrTbNcYYU+f49+lgOI/7YDyLDkDDpFEwjkQKRvriiy/2XwHQoiH/EjgAzEIqZYwxbY40Csbz2A+mswgBNEQaBdNIpGAiv1UKoC1+axQAm5NKGWNMG/PRRx/tXoEJPP6Dmdy4caPbRemvv/66eOmll/Z/ogSPHj26uHLFQ+qSPH78zyXihRcsvSU5/Kw8fPjQDwgAAAAAAAAAAAAAAAAAAACoxcXF/wAkdrx+V73TqAAAAABJRU5ErkJggg==;" vertex="1" parent="1">
          <mxGeometry x="540" y="442.96" width="570.15" height="452.08" as="geometry" />
        </mxCell>
        <mxCell id="8_2-oLqJLHh6dvRKY53B-72" value="&lt;b&gt;MicrometreMetricsService&lt;/b&gt;&lt;div&gt;&lt;b&gt;&lt;br&gt;&lt;/b&gt;&lt;div&gt;[Adapter Outbound]&lt;/div&gt;&lt;/div&gt;" style="rounded=1;whiteSpace=wrap;html=1;fillColor=#fff2cc;strokeColor=#d6b656;" vertex="1" parent="1">
          <mxGeometry x="740" y="175" width="180" height="90" as="geometry" />
        </mxCell>
        <mxCell id="8_2-oLqJLHh6dvRKY53B-77" style="edgeStyle=orthogonalEdgeStyle;rounded=0;orthogonalLoop=1;jettySize=auto;html=1;entryX=0;entryY=0.5;entryDx=0;entryDy=0;" edge="1" parent="1" source="8_2-oLqJLHh6dvRKY53B-67" target="8_2-oLqJLHh6dvRKY53B-41">
          <mxGeometry relative="1" as="geometry">
            <Array as="points">
              <mxPoint x="280" y="520" />
            </Array>
          </mxGeometry>
        </mxCell>
        <mxCell id="8_2-oLqJLHh6dvRKY53B-67" value="&lt;b&gt;OrderController&lt;/b&gt;&lt;div&gt;&lt;b&gt;&lt;br&gt;&lt;/b&gt;&lt;div&gt;[Adapter Inbound]&lt;/div&gt;&lt;/div&gt;" style="rounded=1;whiteSpace=wrap;html=1;fillColor=#fff2cc;strokeColor=#d6b656;" vertex="1" parent="1">
          <mxGeometry x="200" y="335" width="180" height="90" as="geometry" />
        </mxCell>
        <mxCell id="8_2-oLqJLHh6dvRKY53B-65" value="&lt;b&gt;KafkaOrderPurchaseProducer&lt;/b&gt;&lt;br&gt;&lt;div&gt;&lt;b&gt;&lt;br&gt;&lt;/b&gt;&lt;div&gt;[Adapter Outbound]&lt;/div&gt;&lt;/div&gt;" style="rounded=1;whiteSpace=wrap;html=1;fillColor=#fff2cc;strokeColor=#d6b656;" vertex="1" parent="1">
          <mxGeometry x="160" y="885" width="200" height="90" as="geometry" />
        </mxCell>
        <mxCell id="8_2-oLqJLHh6dvRKY53B-63" style="edgeStyle=orthogonalEdgeStyle;rounded=0;orthogonalLoop=1;jettySize=auto;html=1;" edge="1" parent="1" source="8_2-oLqJLHh6dvRKY53B-61" target="8_2-oLqJLHh6dvRKY53B-44">
          <mxGeometry relative="1" as="geometry">
            <Array as="points">
              <mxPoint x="1180" y="905" />
            </Array>
          </mxGeometry>
        </mxCell>
        <mxCell id="8_2-oLqJLHh6dvRKY53B-61" value="&lt;b&gt;KafkaOrderPurchaseConsumer&lt;/b&gt;&lt;br&gt;&lt;div&gt;&lt;b&gt;&lt;br&gt;&lt;/b&gt;&lt;div&gt;[Adapter Inbound]&lt;/div&gt;&lt;/div&gt;" style="rounded=1;whiteSpace=wrap;html=1;fillColor=#fff2cc;strokeColor=#d6b656;" vertex="1" parent="1">
          <mxGeometry x="1260" y="885" width="220" height="90" as="geometry" />
        </mxCell>
        <mxCell id="8_2-oLqJLHh6dvRKY53B-59" value="&lt;b&gt;MongoDbRepository&lt;/b&gt;&lt;div&gt;&lt;b&gt;&lt;br&gt;&lt;/b&gt;&lt;div&gt;[Adapter Outbound]&lt;/div&gt;&lt;/div&gt;" style="rounded=1;whiteSpace=wrap;html=1;fillColor=#fff2cc;strokeColor=#d6b656;" vertex="1" parent="1">
          <mxGeometry x="1260" y="335" width="180" height="90" as="geometry" />
        </mxCell>
        <mxCell id="8_2-oLqJLHh6dvRKY53B-66" style="edgeStyle=orthogonalEdgeStyle;rounded=0;orthogonalLoop=1;jettySize=auto;html=1;entryX=1;entryY=0.5;entryDx=0;entryDy=0;" edge="1" parent="1" source="8_2-oLqJLHh6dvRKY53B-43" target="8_2-oLqJLHh6dvRKY53B-65">
          <mxGeometry relative="1" as="geometry">
            <Array as="points">
              <mxPoint x="470" y="930" />
            </Array>
          </mxGeometry>
        </mxCell>
        <mxCell id="8_2-oLqJLHh6dvRKY53B-43" value="&lt;b&gt;OrderPurchaseProducer&lt;/b&gt;&lt;div&gt;&lt;b&gt;&lt;br&gt;&lt;/b&gt;&lt;div&gt;[Port Out]&lt;/div&gt;&lt;/div&gt;" style="rounded=1;whiteSpace=wrap;html=1;fillColor=#dae8fc;strokeColor=#6c8ebf;" vertex="1" parent="1">
          <mxGeometry x="430" y="775" width="180" height="90" as="geometry" />
        </mxCell>
        <mxCell id="8_2-oLqJLHh6dvRKY53B-60" style="edgeStyle=orthogonalEdgeStyle;rounded=0;orthogonalLoop=1;jettySize=auto;html=1;" edge="1" parent="1" source="8_2-oLqJLHh6dvRKY53B-42" target="8_2-oLqJLHh6dvRKY53B-59">
          <mxGeometry relative="1" as="geometry">
            <Array as="points">
              <mxPoint x="1340" y="510" />
            </Array>
          </mxGeometry>
        </mxCell>
        <mxCell id="8_2-oLqJLHh6dvRKY53B-42" value="&lt;b&gt;OrderPurchaseRepository&lt;/b&gt;&lt;div&gt;&lt;b&gt;&lt;br&gt;&lt;/b&gt;&lt;div&gt;[Port Out]&lt;/div&gt;&lt;/div&gt;" style="rounded=1;whiteSpace=wrap;html=1;fillColor=#dae8fc;strokeColor=#6c8ebf;" vertex="1" parent="1">
          <mxGeometry x="1050" y="475" width="180" height="90" as="geometry" />
        </mxCell>
        <mxCell id="8_2-oLqJLHh6dvRKY53B-8" value="" style="shape=image;verticalLabelPosition=bottom;labelBackgroundColor=default;verticalAlign=top;aspect=fixed;imageAspect=0;image=https://www.svgrepo.com/show/331488/mongodb.svg;" vertex="1" parent="1">
          <mxGeometry x="1410.84" y="304.63" width="50" height="50" as="geometry" />
        </mxCell>
        <mxCell id="8_2-oLqJLHh6dvRKY53B-6" value="" style="shape=image;verticalLabelPosition=bottom;labelBackgroundColor=default;verticalAlign=top;aspect=fixed;imageAspect=0;image=https://seeklogo.com/images/K/kafka-logo-8E01E03CAD-seeklogo.com.png;" vertex="1" parent="1">
          <mxGeometry x="160" y="855" width="30.84" height="50" as="geometry" />
        </mxCell>
        <mxCell id="8_2-oLqJLHh6dvRKY53B-7" value="" style="shape=image;verticalLabelPosition=bottom;labelBackgroundColor=default;verticalAlign=top;aspect=fixed;imageAspect=0;image=https://static-00.iconduck.com/assets.00/prometheus-icon-511x512-1vmxbcxr.png;" vertex="1" parent="1">
          <mxGeometry x="870" y="135" width="59.88" height="60" as="geometry" />
        </mxCell>
        <mxCell id="8_2-oLqJLHh6dvRKY53B-39" value="&lt;b&gt;OrderPurchase&lt;/b&gt;&lt;div&gt;&lt;b&gt;&lt;br&gt;&lt;/b&gt;&lt;div&gt;[Domain Core]&lt;/div&gt;&lt;/div&gt;" style="rounded=1;whiteSpace=wrap;html=1;fillColor=#f8cecc;strokeColor=#b85450;" vertex="1" parent="1">
          <mxGeometry x="730" y="735" width="180" height="90" as="geometry" />
        </mxCell>
        <mxCell id="8_2-oLqJLHh6dvRKY53B-52" style="edgeStyle=orthogonalEdgeStyle;rounded=0;orthogonalLoop=1;jettySize=auto;html=1;" edge="1" parent="1" source="8_2-oLqJLHh6dvRKY53B-41" target="8_2-oLqJLHh6dvRKY53B-48">
          <mxGeometry relative="1" as="geometry">
            <Array as="points">
              <mxPoint x="520" y="615" />
            </Array>
          </mxGeometry>
        </mxCell>
        <mxCell id="8_2-oLqJLHh6dvRKY53B-41" value="&lt;b&gt;SendOrderPurchase&lt;/b&gt;&lt;div&gt;&lt;b&gt;&lt;br&gt;&lt;/b&gt;&lt;div&gt;[Port In]&lt;/div&gt;&lt;/div&gt;" style="rounded=1;whiteSpace=wrap;html=1;fillColor=#dae8fc;strokeColor=#6c8ebf;" vertex="1" parent="1">
          <mxGeometry x="420" y="475" width="180" height="90" as="geometry" />
        </mxCell>
        <mxCell id="8_2-oLqJLHh6dvRKY53B-62" style="edgeStyle=orthogonalEdgeStyle;rounded=0;orthogonalLoop=1;jettySize=auto;html=1;entryX=0.75;entryY=1;entryDx=0;entryDy=0;" edge="1" parent="1" source="8_2-oLqJLHh6dvRKY53B-44" target="8_2-oLqJLHh6dvRKY53B-49">
          <mxGeometry relative="1" as="geometry" />
        </mxCell>
        <mxCell id="8_2-oLqJLHh6dvRKY53B-44" value="&lt;b&gt;OrderPurchaseProcessor&lt;/b&gt;&lt;div&gt;&lt;b&gt;&lt;br&gt;&lt;/b&gt;&lt;div&gt;[Port In]&lt;/div&gt;&lt;/div&gt;" style="rounded=1;whiteSpace=wrap;html=1;fillColor=#dae8fc;strokeColor=#6c8ebf;" vertex="1" parent="1">
          <mxGeometry x="1050" y="755" width="180" height="90" as="geometry" />
        </mxCell>
        <mxCell id="8_2-oLqJLHh6dvRKY53B-45" value="" style="shape=image;verticalLabelPosition=bottom;labelBackgroundColor=default;verticalAlign=top;aspect=fixed;imageAspect=0;image=https://seeklogo.com/images/K/kafka-logo-8E01E03CAD-seeklogo.com.png;" vertex="1" parent="1">
          <mxGeometry x="1460.84" y="855" width="30.84" height="50" as="geometry" />
        </mxCell>
        <mxCell id="8_2-oLqJLHh6dvRKY53B-46" value="" style="shape=image;verticalLabelPosition=bottom;labelBackgroundColor=default;verticalAlign=top;aspect=fixed;imageAspect=0;image=https://intrastage.com/wp-content/uploads/2019/09/rest-api-icon.png;" vertex="1" parent="1">
          <mxGeometry x="180" y="315" width="44.24" height="50" as="geometry" />
        </mxCell>
        <mxCell id="8_2-oLqJLHh6dvRKY53B-50" style="edgeStyle=orthogonalEdgeStyle;rounded=0;orthogonalLoop=1;jettySize=auto;html=1;" edge="1" parent="1" source="8_2-oLqJLHh6dvRKY53B-48" target="8_2-oLqJLHh6dvRKY53B-39">
          <mxGeometry relative="1" as="geometry" />
        </mxCell>
        <mxCell id="8_2-oLqJLHh6dvRKY53B-64" style="edgeStyle=orthogonalEdgeStyle;rounded=0;orthogonalLoop=1;jettySize=auto;html=1;entryX=1;entryY=0.5;entryDx=0;entryDy=0;" edge="1" parent="1" source="8_2-oLqJLHh6dvRKY53B-48" target="8_2-oLqJLHh6dvRKY53B-43">
          <mxGeometry relative="1" as="geometry">
            <Array as="points">
              <mxPoint x="680" y="820" />
            </Array>
          </mxGeometry>
        </mxCell>
        <mxCell id="8_2-oLqJLHh6dvRKY53B-70" style="edgeStyle=orthogonalEdgeStyle;rounded=0;orthogonalLoop=1;jettySize=auto;html=1;" edge="1" parent="1" source="8_2-oLqJLHh6dvRKY53B-48" target="8_2-oLqJLHh6dvRKY53B-69">
          <mxGeometry relative="1" as="geometry" />
        </mxCell>
        <mxCell id="8_2-oLqJLHh6dvRKY53B-48" value="&lt;b&gt;SendOrderPurchase&lt;/b&gt;&lt;div&gt;&lt;b&gt;&lt;br&gt;&lt;/b&gt;&lt;div&gt;[Domain UseCase]&lt;/div&gt;&lt;/div&gt;" style="rounded=1;whiteSpace=wrap;html=1;fillColor=#e1d5e7;strokeColor=#9673a6;" vertex="1" parent="1">
          <mxGeometry x="640" y="570" width="180" height="90" as="geometry" />
        </mxCell>
        <mxCell id="8_2-oLqJLHh6dvRKY53B-51" style="edgeStyle=orthogonalEdgeStyle;rounded=0;orthogonalLoop=1;jettySize=auto;html=1;entryX=0.5;entryY=0;entryDx=0;entryDy=0;" edge="1" parent="1" source="8_2-oLqJLHh6dvRKY53B-49" target="8_2-oLqJLHh6dvRKY53B-39">
          <mxGeometry relative="1" as="geometry" />
        </mxCell>
        <mxCell id="8_2-oLqJLHh6dvRKY53B-58" style="edgeStyle=orthogonalEdgeStyle;rounded=0;orthogonalLoop=1;jettySize=auto;html=1;" edge="1" parent="1" source="8_2-oLqJLHh6dvRKY53B-49" target="8_2-oLqJLHh6dvRKY53B-42">
          <mxGeometry relative="1" as="geometry" />
        </mxCell>
        <mxCell id="8_2-oLqJLHh6dvRKY53B-71" style="edgeStyle=orthogonalEdgeStyle;rounded=0;orthogonalLoop=1;jettySize=auto;html=1;entryX=0.5;entryY=1;entryDx=0;entryDy=0;" edge="1" parent="1" source="8_2-oLqJLHh6dvRKY53B-49" target="8_2-oLqJLHh6dvRKY53B-69">
          <mxGeometry relative="1" as="geometry" />
        </mxCell>
        <mxCell id="8_2-oLqJLHh6dvRKY53B-49" value="&lt;b&gt;ProcessOrderPurchase&lt;/b&gt;&lt;div&gt;&lt;b&gt;&lt;br&gt;&lt;/b&gt;&lt;div&gt;[Domain UseCase]&lt;/div&gt;&lt;/div&gt;" style="rounded=1;whiteSpace=wrap;html=1;fillColor=#e1d5e7;strokeColor=#9673a6;" vertex="1" parent="1">
          <mxGeometry x="830" y="570" width="180" height="90" as="geometry" />
        </mxCell>
        <mxCell id="8_2-oLqJLHh6dvRKY53B-73" style="edgeStyle=orthogonalEdgeStyle;rounded=0;orthogonalLoop=1;jettySize=auto;html=1;entryX=0.5;entryY=1;entryDx=0;entryDy=0;" edge="1" parent="1" source="8_2-oLqJLHh6dvRKY53B-69" target="8_2-oLqJLHh6dvRKY53B-72">
          <mxGeometry relative="1" as="geometry" />
        </mxCell>
        <mxCell id="8_2-oLqJLHh6dvRKY53B-69" value="&lt;b&gt;MetricsService&lt;/b&gt;&lt;div&gt;&lt;b&gt;&lt;br&gt;&lt;/b&gt;&lt;div&gt;[Port Out]&lt;/div&gt;&lt;/div&gt;" style="rounded=1;whiteSpace=wrap;html=1;fillColor=#dae8fc;strokeColor=#6c8ebf;" vertex="1" parent="1">
          <mxGeometry x="740" y="335" width="180" height="90" as="geometry" />
        </mxCell>
        <mxCell id="8_2-oLqJLHh6dvRKY53B-74" value="&lt;b&gt;Application&lt;/b&gt;" style="rounded=1;whiteSpace=wrap;html=1;fillColor=#e1d5e7;strokeColor=#9673a6;" vertex="1" parent="1">
          <mxGeometry x="40" y="90" width="220" height="40" as="geometry" />
        </mxCell>
        <mxCell id="8_2-oLqJLHh6dvRKY53B-75" value="&lt;b&gt;Ports&lt;/b&gt;" style="rounded=1;whiteSpace=wrap;html=1;fillColor=#dae8fc;strokeColor=#6c8ebf;" vertex="1" parent="1">
          <mxGeometry x="40" y="140" width="220" height="40" as="geometry" />
        </mxCell>
        <mxCell id="8_2-oLqJLHh6dvRKY53B-76" value="&lt;b&gt;Adapters&lt;/b&gt;" style="rounded=1;whiteSpace=wrap;html=1;fillColor=#fff2cc;strokeColor=#d6b656;" vertex="1" parent="1">
          <mxGeometry x="40" y="190" width="220" height="40" as="geometry" />
        </mxCell>
        <mxCell id="8_2-oLqJLHh6dvRKY53B-78" value="&lt;b&gt;Domain Entity&lt;/b&gt;" style="rounded=1;whiteSpace=wrap;html=1;fillColor=#f8cecc;strokeColor=#b85450;" vertex="1" parent="1">
          <mxGeometry x="40" y="40" width="220" height="40" as="geometry" />
        </mxCell>
      </root>
    </mxGraphModel>
  </diagram>
</mxfile>
